<mxfile host="app.diagrams.net" agent="Mozilla/5.0 (Windows NT 10.0; Win64; x64) AppleWebKit/537.36 (KHTML, like Gecko) Chrome/136.0.0.0 Safari/537.36" version="27.0.5">
  <diagram name="Page-1" id="G057TMkhSPLAft_Q2gws">
    <mxGraphModel dx="1042" dy="657" grid="0" gridSize="10" guides="1" tooltips="1" connect="1" arrows="1" fold="1" page="1" pageScale="1" pageWidth="850" pageHeight="1100" background="none" math="0" shadow="1">
      <root>
        <mxCell id="0" />
        <mxCell id="1" parent="0" />
        <mxCell id="0tOmjvYXlfDMR4Ho-GJQ-1" value="" style="image;html=1;image=img/lib/atlassian/Jira_Logo.svg;" vertex="1" parent="1">
          <mxGeometry x="365" y="50" width="60" height="60" as="geometry" />
        </mxCell>
        <mxCell id="0tOmjvYXlfDMR4Ho-GJQ-5" style="edgeStyle=orthogonalEdgeStyle;rounded=0;orthogonalLoop=1;jettySize=auto;html=1;" edge="1" parent="1" source="0tOmjvYXlfDMR4Ho-GJQ-2">
          <mxGeometry relative="1" as="geometry">
            <mxPoint x="395" y="220" as="targetPoint" />
          </mxGeometry>
        </mxCell>
        <mxCell id="0tOmjvYXlfDMR4Ho-GJQ-2" value="&lt;b&gt;GHI&lt;/b&gt;" style="text;html=1;align=center;verticalAlign=middle;resizable=0;points=[];autosize=1;strokeColor=none;fillColor=none;" vertex="1" parent="1">
          <mxGeometry x="375" y="110" width="40" height="30" as="geometry" />
        </mxCell>
        <mxCell id="0tOmjvYXlfDMR4Ho-GJQ-3" value="&lt;b&gt;L3 Board&lt;/b&gt;" style="text;html=1;align=center;verticalAlign=middle;resizable=0;points=[];autosize=1;strokeColor=none;fillColor=none;" vertex="1" parent="1">
          <mxGeometry x="355" y="10" width="80" height="30" as="geometry" />
        </mxCell>
        <mxCell id="0tOmjvYXlfDMR4Ho-GJQ-6" value="" style="endArrow=none;html=1;rounded=0;" edge="1" parent="1">
          <mxGeometry width="50" height="50" relative="1" as="geometry">
            <mxPoint x="140" y="220" as="sourcePoint" />
            <mxPoint x="650" y="220" as="targetPoint" />
            <Array as="points">
              <mxPoint x="390" y="220" />
            </Array>
          </mxGeometry>
        </mxCell>
        <mxCell id="0tOmjvYXlfDMR4Ho-GJQ-7" value="" style="endArrow=classic;html=1;rounded=0;" edge="1" parent="1">
          <mxGeometry width="50" height="50" relative="1" as="geometry">
            <mxPoint x="140" y="220" as="sourcePoint" />
            <mxPoint x="140" y="300" as="targetPoint" />
          </mxGeometry>
        </mxCell>
        <mxCell id="0tOmjvYXlfDMR4Ho-GJQ-12" value="" style="endArrow=classic;html=1;rounded=0;" edge="1" parent="1">
          <mxGeometry width="50" height="50" relative="1" as="geometry">
            <mxPoint x="394.5" y="220" as="sourcePoint" />
            <mxPoint x="394.5" y="300" as="targetPoint" />
          </mxGeometry>
        </mxCell>
        <mxCell id="0tOmjvYXlfDMR4Ho-GJQ-13" value="" style="endArrow=classic;html=1;rounded=0;" edge="1" parent="1">
          <mxGeometry width="50" height="50" relative="1" as="geometry">
            <mxPoint x="650" y="220" as="sourcePoint" />
            <mxPoint x="650" y="300" as="targetPoint" />
          </mxGeometry>
        </mxCell>
        <mxCell id="0tOmjvYXlfDMR4Ho-GJQ-14" value="" style="image;html=1;image=img/lib/atlassian/Jira_Logo.svg;" vertex="1" parent="1">
          <mxGeometry x="100" y="300" width="60" height="60" as="geometry" />
        </mxCell>
        <mxCell id="0tOmjvYXlfDMR4Ho-GJQ-15" value="" style="image;html=1;image=img/lib/atlassian/Jira_Logo.svg;" vertex="1" parent="1">
          <mxGeometry x="355" y="300" width="60" height="60" as="geometry" />
        </mxCell>
        <mxCell id="0tOmjvYXlfDMR4Ho-GJQ-16" value="" style="image;html=1;image=img/lib/atlassian/Jira_Logo.svg;" vertex="1" parent="1">
          <mxGeometry x="610" y="300" width="60" height="60" as="geometry" />
        </mxCell>
        <mxCell id="0tOmjvYXlfDMR4Ho-GJQ-17" value="&lt;b&gt;DEF1&lt;/b&gt;" style="text;html=1;align=center;verticalAlign=middle;resizable=0;points=[];autosize=1;strokeColor=none;fillColor=none;" vertex="1" parent="1">
          <mxGeometry x="105" y="358" width="50" height="30" as="geometry" />
        </mxCell>
        <mxCell id="0tOmjvYXlfDMR4Ho-GJQ-18" value="&lt;b&gt;DEF2&lt;/b&gt;" style="text;html=1;align=center;verticalAlign=middle;resizable=0;points=[];autosize=1;strokeColor=none;fillColor=none;" vertex="1" parent="1">
          <mxGeometry x="360" y="360" width="50" height="30" as="geometry" />
        </mxCell>
        <mxCell id="0tOmjvYXlfDMR4Ho-GJQ-29" style="edgeStyle=orthogonalEdgeStyle;rounded=0;orthogonalLoop=1;jettySize=auto;html=1;exitX=0.505;exitY=1.053;exitDx=0;exitDy=0;exitPerimeter=0;" edge="1" parent="1" source="0tOmjvYXlfDMR4Ho-GJQ-25">
          <mxGeometry relative="1" as="geometry">
            <mxPoint x="640" y="480" as="targetPoint" />
          </mxGeometry>
        </mxCell>
        <mxCell id="0tOmjvYXlfDMR4Ho-GJQ-19" value="&lt;b&gt;DEF3&lt;/b&gt;" style="text;html=1;align=center;verticalAlign=middle;resizable=0;points=[];autosize=1;strokeColor=none;fillColor=none;" vertex="1" parent="1">
          <mxGeometry x="615" y="360" width="50" height="30" as="geometry" />
        </mxCell>
        <mxCell id="0tOmjvYXlfDMR4Ho-GJQ-26" style="edgeStyle=orthogonalEdgeStyle;rounded=0;orthogonalLoop=1;jettySize=auto;html=1;" edge="1" parent="1" source="0tOmjvYXlfDMR4Ho-GJQ-23">
          <mxGeometry relative="1" as="geometry">
            <mxPoint x="130" y="480" as="targetPoint" />
          </mxGeometry>
        </mxCell>
        <mxCell id="0tOmjvYXlfDMR4Ho-GJQ-23" value="&lt;b&gt;L2 Board&lt;/b&gt;" style="text;html=1;align=center;verticalAlign=middle;resizable=0;points=[];autosize=1;strokeColor=none;fillColor=none;" vertex="1" parent="1">
          <mxGeometry x="90" y="380" width="80" height="30" as="geometry" />
        </mxCell>
        <mxCell id="0tOmjvYXlfDMR4Ho-GJQ-28" style="edgeStyle=orthogonalEdgeStyle;rounded=0;orthogonalLoop=1;jettySize=auto;html=1;" edge="1" parent="1" source="0tOmjvYXlfDMR4Ho-GJQ-24">
          <mxGeometry relative="1" as="geometry">
            <mxPoint x="385" y="480" as="targetPoint" />
          </mxGeometry>
        </mxCell>
        <mxCell id="0tOmjvYXlfDMR4Ho-GJQ-24" value="&lt;b&gt;L2 Board&lt;/b&gt;" style="text;html=1;align=center;verticalAlign=middle;resizable=0;points=[];autosize=1;strokeColor=none;fillColor=none;" vertex="1" parent="1">
          <mxGeometry x="345" y="380" width="80" height="30" as="geometry" />
        </mxCell>
        <mxCell id="0tOmjvYXlfDMR4Ho-GJQ-25" value="&lt;b&gt;L2 Board&lt;/b&gt;" style="text;html=1;align=center;verticalAlign=middle;resizable=0;points=[];autosize=1;strokeColor=none;fillColor=none;" vertex="1" parent="1">
          <mxGeometry x="600" y="380" width="80" height="30" as="geometry" />
        </mxCell>
        <mxCell id="0tOmjvYXlfDMR4Ho-GJQ-30" value="" style="endArrow=none;html=1;rounded=0;" edge="1" parent="1">
          <mxGeometry width="50" height="50" relative="1" as="geometry">
            <mxPoint x="60" y="480" as="sourcePoint" />
            <mxPoint x="200" y="480" as="targetPoint" />
          </mxGeometry>
        </mxCell>
        <mxCell id="0tOmjvYXlfDMR4Ho-GJQ-31" value="" style="endArrow=none;html=1;rounded=0;" edge="1" parent="1">
          <mxGeometry width="50" height="50" relative="1" as="geometry">
            <mxPoint x="310" y="480" as="sourcePoint" />
            <mxPoint x="450" y="480" as="targetPoint" />
          </mxGeometry>
        </mxCell>
        <mxCell id="0tOmjvYXlfDMR4Ho-GJQ-32" value="" style="endArrow=none;html=1;rounded=0;" edge="1" parent="1">
          <mxGeometry width="50" height="50" relative="1" as="geometry">
            <mxPoint x="570" y="480" as="sourcePoint" />
            <mxPoint x="710" y="480" as="targetPoint" />
          </mxGeometry>
        </mxCell>
        <mxCell id="0tOmjvYXlfDMR4Ho-GJQ-33" value="" style="endArrow=classic;html=1;rounded=0;" edge="1" parent="1">
          <mxGeometry width="50" height="50" relative="1" as="geometry">
            <mxPoint x="60" y="480" as="sourcePoint" />
            <mxPoint x="60" y="540" as="targetPoint" />
          </mxGeometry>
        </mxCell>
        <mxCell id="0tOmjvYXlfDMR4Ho-GJQ-34" value="" style="endArrow=classic;html=1;rounded=0;" edge="1" parent="1">
          <mxGeometry width="50" height="50" relative="1" as="geometry">
            <mxPoint x="200" y="480" as="sourcePoint" />
            <mxPoint x="200" y="540" as="targetPoint" />
          </mxGeometry>
        </mxCell>
        <mxCell id="0tOmjvYXlfDMR4Ho-GJQ-35" value="" style="endArrow=classic;html=1;rounded=0;" edge="1" parent="1">
          <mxGeometry width="50" height="50" relative="1" as="geometry">
            <mxPoint x="310" y="480" as="sourcePoint" />
            <mxPoint x="310" y="540" as="targetPoint" />
          </mxGeometry>
        </mxCell>
        <mxCell id="0tOmjvYXlfDMR4Ho-GJQ-36" value="" style="endArrow=classic;html=1;rounded=0;" edge="1" parent="1">
          <mxGeometry width="50" height="50" relative="1" as="geometry">
            <mxPoint x="450" y="480" as="sourcePoint" />
            <mxPoint x="450" y="540" as="targetPoint" />
          </mxGeometry>
        </mxCell>
        <mxCell id="0tOmjvYXlfDMR4Ho-GJQ-37" value="" style="endArrow=classic;html=1;rounded=0;" edge="1" parent="1">
          <mxGeometry width="50" height="50" relative="1" as="geometry">
            <mxPoint x="570" y="480" as="sourcePoint" />
            <mxPoint x="570" y="540" as="targetPoint" />
          </mxGeometry>
        </mxCell>
        <mxCell id="0tOmjvYXlfDMR4Ho-GJQ-38" value="" style="endArrow=classic;html=1;rounded=0;" edge="1" parent="1">
          <mxGeometry width="50" height="50" relative="1" as="geometry">
            <mxPoint x="710" y="480" as="sourcePoint" />
            <mxPoint x="710" y="540" as="targetPoint" />
          </mxGeometry>
        </mxCell>
        <mxCell id="0tOmjvYXlfDMR4Ho-GJQ-39" value="" style="image;html=1;image=img/lib/atlassian/Jira_Logo.svg;" vertex="1" parent="1">
          <mxGeometry x="20" y="540" width="60" height="60" as="geometry" />
        </mxCell>
        <mxCell id="0tOmjvYXlfDMR4Ho-GJQ-40" value="" style="image;html=1;image=img/lib/atlassian/Jira_Logo.svg;" vertex="1" parent="1">
          <mxGeometry x="160" y="540" width="60" height="60" as="geometry" />
        </mxCell>
        <mxCell id="0tOmjvYXlfDMR4Ho-GJQ-41" value="" style="image;html=1;image=img/lib/atlassian/Jira_Logo.svg;" vertex="1" parent="1">
          <mxGeometry x="270" y="540" width="60" height="60" as="geometry" />
        </mxCell>
        <mxCell id="0tOmjvYXlfDMR4Ho-GJQ-42" value="" style="image;html=1;image=img/lib/atlassian/Jira_Logo.svg;" vertex="1" parent="1">
          <mxGeometry x="410" y="540" width="60" height="60" as="geometry" />
        </mxCell>
        <mxCell id="0tOmjvYXlfDMR4Ho-GJQ-43" value="" style="image;html=1;image=img/lib/atlassian/Jira_Logo.svg;" vertex="1" parent="1">
          <mxGeometry x="530" y="540" width="60" height="60" as="geometry" />
        </mxCell>
        <mxCell id="0tOmjvYXlfDMR4Ho-GJQ-44" value="" style="image;html=1;image=img/lib/atlassian/Jira_Logo.svg;" vertex="1" parent="1">
          <mxGeometry x="670" y="540" width="60" height="60" as="geometry" />
        </mxCell>
        <mxCell id="0tOmjvYXlfDMR4Ho-GJQ-45" value="&lt;div&gt;&lt;b&gt;ABC1&lt;/b&gt;&lt;/div&gt;&lt;div&gt;&lt;b&gt;L1 Board&lt;/b&gt;&lt;/div&gt;" style="text;html=1;align=center;verticalAlign=middle;resizable=0;points=[];autosize=1;strokeColor=none;fillColor=none;" vertex="1" parent="1">
          <mxGeometry x="10" y="600" width="80" height="40" as="geometry" />
        </mxCell>
        <mxCell id="0tOmjvYXlfDMR4Ho-GJQ-46" value="&lt;b&gt;ABC2&lt;/b&gt;&lt;div&gt;&lt;b&gt;L1 Board&lt;/b&gt;&lt;/div&gt;" style="text;html=1;align=center;verticalAlign=middle;resizable=0;points=[];autosize=1;strokeColor=none;fillColor=none;" vertex="1" parent="1">
          <mxGeometry x="150" y="600" width="80" height="40" as="geometry" />
        </mxCell>
        <mxCell id="0tOmjvYXlfDMR4Ho-GJQ-47" value="&lt;b&gt;ABC3&lt;/b&gt;&lt;div&gt;&lt;b&gt;L1 Board&lt;/b&gt;&lt;/div&gt;" style="text;html=1;align=center;verticalAlign=middle;resizable=0;points=[];autosize=1;strokeColor=none;fillColor=none;" vertex="1" parent="1">
          <mxGeometry x="260" y="600" width="80" height="40" as="geometry" />
        </mxCell>
        <mxCell id="0tOmjvYXlfDMR4Ho-GJQ-48" value="&lt;b&gt;ABC4&lt;/b&gt;&lt;div&gt;&lt;b&gt;L1 Board&lt;/b&gt;&lt;/div&gt;" style="text;html=1;align=center;verticalAlign=middle;resizable=0;points=[];autosize=1;strokeColor=none;fillColor=none;" vertex="1" parent="1">
          <mxGeometry x="400" y="600" width="80" height="40" as="geometry" />
        </mxCell>
        <mxCell id="0tOmjvYXlfDMR4Ho-GJQ-49" value="&lt;b&gt;ABC5&lt;/b&gt;&lt;div&gt;&lt;b&gt;L1 Board&lt;/b&gt;&lt;/div&gt;" style="text;html=1;align=center;verticalAlign=middle;resizable=0;points=[];autosize=1;strokeColor=none;fillColor=none;" vertex="1" parent="1">
          <mxGeometry x="520" y="600" width="80" height="40" as="geometry" />
        </mxCell>
        <mxCell id="0tOmjvYXlfDMR4Ho-GJQ-50" value="&lt;b&gt;ABC6&lt;/b&gt;&lt;div&gt;&lt;b&gt;L1 Board&lt;/b&gt;&lt;/div&gt;" style="text;html=1;align=center;verticalAlign=middle;resizable=0;points=[];autosize=1;strokeColor=none;fillColor=none;" vertex="1" parent="1">
          <mxGeometry x="660" y="600" width="80" height="40" as="geometry" />
        </mxCell>
      </root>
    </mxGraphModel>
  </diagram>
</mxfile>
